<svg width="32" height="33" viewBox="0 0 32 33" fill="none" xmlns="http://www.w3.org/2000/svg">
<rect y="0.75" width="32" height="32" rx="16" fill="#F7F8F9"/>
<path d="M20.2421 20.9927C20.5025 20.7323 20.5025 20.3102 20.2421 20.0499L16.9428 16.7505L20.243 13.4502C20.5034 13.1899 20.5034 12.7677 20.243 12.5074C19.9827 12.247 19.5606 12.247 19.3002 12.5074L15.9999 15.8077L12.6997 12.5074C12.4393 12.247 12.0172 12.247 11.7568 12.5074C11.4965 12.7677 11.4965 13.1899 11.7568 13.4502L15.0571 16.7505L11.7578 20.0499C11.4974 20.3102 11.4974 20.7323 11.7578 20.9927C12.0181 21.253 12.4402 21.253 12.7006 20.9927L15.9999 17.6933L19.2993 20.9927C19.5597 21.253 19.9818 21.253 20.2421 20.9927Z" fill="#191D23"/>
</svg>
